<svg viewBox="0 0 100 100" fill="none" xmlns="http://www.w3.org/2000/svg">
  <circle cx="50" cy="50" r="48" fill="white" stroke="#1a7a2e" stroke-width="3"/>
  <g fill="#1a7a2e">
    <ellipse cx="18" cy="38" rx="5" ry="8" transform="rotate(-40 18 38)"/>
    <ellipse cx="13" cy="50" rx="5" ry="8" transform="rotate(-10 13 50)"/>
    <ellipse cx="16" cy="63" rx="5" ry="8" transform="rotate(20 16 63)"/>
    <ellipse cx="24" cy="74" rx="5" ry="7" transform="rotate(40 24 74)"/>
    <ellipse cx="22" cy="26" rx="4" ry="7" transform="rotate(-60 22 26)"/>
  </g>
  <g fill="#1a7a2e">
    <ellipse cx="82" cy="38" rx="5" ry="8" transform="rotate(40 82 38)"/>
    <ellipse cx="87" cy="50" rx="5" ry="8" transform="rotate(10 87 50)"/>
    <ellipse cx="84" cy="63" rx="5" ry="8" transform="rotate(-20 84 63)"/>
    <ellipse cx="76" cy="74" rx="5" ry="7" transform="rotate(-40 76 74)"/>
    <ellipse cx="78" cy="26" rx="4" ry="7" transform="rotate(60 78 26)"/>
  </g>
  <circle cx="50" cy="48" r="22" fill="white" stroke="#222" stroke-width="1.5"/>
  <polygon points="50,30 60,37 57,50 43,50 40,37" fill="#222"/>
  <polygon points="30,44 40,37 43,50 35,57" fill="#222"/>
  <polygon points="70,44 60,37 57,50 65,57" fill="#222"/>
  <polygon points="43,68 35,57 43,50 57,50 65,57 57,68" fill="#222"/>
  <path id="topArc" d="M 20,50 A 30,30 0 0,1 80,50" fill="none"/>
  <path id="botArc" d="M 22,58 A 30,30 0 0,0 78,58" fill="none"/>
  <text font-family="Arial" font-size="7.5" fill="#c8922a" font-weight="bold" letter-spacing="0.5">
    <textPath href="#topArc" startOffset="8%">PRAÇA AMAMBAÍ F.C.</textPath>
  </text>
  <text font-family="Arial" font-size="6.5" fill="#c8922a" font-weight="bold">
    <textPath href="#botArc" startOffset="18%">MEIER · 1993</textPath>
  </text>
</svg>
